<?xml version="1.0" encoding="utf-8"?>
<!-- Generator: Adobe Illustrator 19.0.0, SVG Export Plug-In . SVG Version: 6.00 Build 0)  -->
<svg version="1.1" id="Livello_1" xmlns="http://www.w3.org/2000/svg" xmlns:xlink="http://www.w3.org/1999/xlink" x="0px" y="0px"
	 viewBox="0 0 472.476 88.298" enable-background="new 0 0 472.476 88.298" xml:space="preserve">
<g>
	<g>
		<g>
			<path d="M40.837,43.489c0,4.329-1.251,7.759-3.754,10.29c-2.502,2.531-5.814,3.797-9.934,3.797c-4.239,0-7.64-1.266-10.2-3.797
				c-2.562-2.531-3.842-5.961-3.842-10.29V27.33h9.185v16.158c0,1.884,0.44,3.344,1.325,4.372c0.883,1.032,2.06,1.546,3.533,1.546
				c1.382,0,2.479-0.521,3.29-1.568c0.809-1.043,1.213-2.495,1.213-4.351V27.33h9.185V43.489z"/>
			<path d="M62.36,34.396l-0.309,9.273h-1.325c-2.326,0-4.122,0.485-5.388,1.456c-1.266,0.971-1.898,2.679-1.898,5.124v6.666h-8.876
				V34.525h8.876v4.595c1.532-3.24,3.96-4.858,7.286-4.858C61.226,34.263,61.77,34.306,62.36,34.396z"/>
			<path d="M87.32,37.153c2.03,2.193,3.045,5.055,3.045,8.59c0,3.502-1.016,6.35-3.045,8.543c-2.031,2.193-4.622,3.29-7.772,3.29
				c-2.591,0-4.696-0.852-6.316-2.56v1.898h-8.876V22.912h8.876v13.516c1.62-1.708,3.725-2.564,6.316-2.564
				C82.698,33.864,85.289,34.96,87.32,37.153z M80.32,48.921c0.751-0.852,1.127-1.913,1.127-3.178s-0.376-2.333-1.127-3.204
				c-0.75-0.867-1.729-1.302-2.936-1.302s-2.2,0.435-2.981,1.302c-0.78,0.87-1.17,1.938-1.17,3.204s0.39,2.326,1.17,3.178
				c0.78,0.856,1.774,1.28,2.981,1.28S79.57,49.777,80.32,48.921z"/>
			<path d="M111.996,36.337c1.898,1.647,2.848,3.987,2.848,7.022v13.555h-8.611v-1.456c-1.706,1.413-3.856,2.118-6.447,2.118
				c-2.443,0-4.401-0.669-5.873-2.01c-1.471-1.338-2.208-3.11-2.208-5.318c0-2.269,0.868-4.041,2.607-5.321
				c1.737-1.284,4.194-1.924,7.373-1.924h4.548v-0.618c0-0.647-0.205-1.169-0.617-1.568c-0.413-0.396-0.928-0.593-1.546-0.593
				c-1.384,0-2.193,0.705-2.429,2.118l-8.345-1.765c0.588-2.15,1.81-3.804,3.664-4.969c1.855-1.161,4.21-1.744,7.065-1.744
				C107.44,33.864,110.098,34.687,111.996,36.337z M105.371,50.579c0.575-0.485,0.861-1.187,0.861-2.1v-0.838h-2.517
				c-0.764,0-1.375,0.169-1.832,0.507c-0.457,0.338-0.685,0.802-0.685,1.391c0,0.529,0.192,0.956,0.575,1.28
				c0.381,0.324,0.883,0.485,1.501,0.485C104.098,51.305,104.798,51.064,105.371,50.579z"/>
			<path d="M139.674,36.316c1.501,1.632,2.251,3.862,2.251,6.688v13.911h-8.876V44.905c0-0.942-0.264-1.701-0.795-2.276
				c-0.53-0.575-1.206-0.859-2.031-0.859c-1.001,0-1.789,0.352-2.362,1.057c-0.573,0.708-0.861,1.708-0.861,3.002v11.085h-8.876
				V34.525H127v2.341c1.825-1.999,4.032-3.002,6.625-3.002C136.156,33.864,138.171,34.68,139.674,36.316z"/>
			<path d="M170.822,27.33c3.24,0,5.844,0.971,7.817,2.912c1.972,1.942,2.959,4.491,2.959,7.64c0,3.297-1.053,5.94-3.159,7.924
				c-2.103,1.988-4.893,2.981-8.367,2.981h-5.828v8.126h-9.142V27.33H170.822z M168.747,41.723c1.118,0,2.046-0.331,2.781-0.992
				c0.737-0.662,1.104-1.524,1.104-2.585c0-0.971-0.374-1.78-1.125-2.427c-0.751-0.647-1.67-0.971-2.76-0.971h-4.503v6.975H168.747z
				"/>
			<path d="M202.565,36.337c1.898,1.647,2.848,3.987,2.848,7.022v13.555h-8.611v-1.456c-1.706,1.413-3.856,2.118-6.447,2.118
				c-2.443,0-4.401-0.669-5.873-2.01c-1.471-1.338-2.208-3.11-2.208-5.318c0-2.269,0.868-4.041,2.605-5.321
				c1.738-1.284,4.196-1.924,7.374-1.924h4.548v-0.618c0-0.647-0.205-1.169-0.618-1.568c-0.412-0.396-0.926-0.593-1.544-0.593
				c-1.384,0-2.193,0.705-2.429,2.118l-8.345-1.765c0.588-2.15,1.81-3.804,3.664-4.969c1.855-1.161,4.21-1.744,7.065-1.744
				C198.009,33.864,200.667,34.687,202.565,36.337z M195.94,50.579c0.575-0.485,0.861-1.187,0.861-2.1v-0.838h-2.517
				c-0.764,0-1.375,0.169-1.832,0.507c-0.457,0.338-0.685,0.802-0.685,1.391c0,0.529,0.192,0.956,0.575,1.28
				c0.381,0.324,0.883,0.485,1.501,0.485C194.667,51.305,195.367,51.064,195.94,50.579z"/>
			<path d="M226.489,34.396l-0.309,9.273h-1.325c-2.326,0-4.122,0.485-5.388,1.456c-1.266,0.971-1.898,2.679-1.898,5.124v6.666
				h-8.876V34.525h8.876v4.595c1.532-3.24,3.96-4.858,7.286-4.858C225.355,34.263,225.9,34.306,226.489,34.396z"/>
			<path d="M244.03,56.914l-3.93-6.094l-2.738,3.268v2.826h-8.876V22.912h8.876V41.59l6.049-7.065h10.422l-7.684,9.097l8.654,13.293
				H244.03z"/>
		</g>
		<g>
			<path d="M353.157,56.914h-8.919V44.24l-6.049,12.674h-5.961l-6.049-12.674v12.674h-8.92V27.33h9.936l7.991,15.101l8.038-15.101
				h9.934V56.914z"/>
			<path d="M365.125,24.681c0.926,0.942,1.39,2.06,1.39,3.355c0,1.384-0.455,2.524-1.368,3.423
				c-0.913,0.899-2.091,1.345-3.533,1.345s-2.619-0.446-3.533-1.345s-1.368-2.039-1.368-3.423c0-1.323,0.462-2.452,1.39-3.376
				c0.928-0.928,2.098-1.391,3.511-1.391S364.197,23.739,365.125,24.681z M357.154,56.914V34.525h8.92v22.389H357.154z"/>
			<path d="M378.842,48.479c0,0.471,0.14,0.856,0.421,1.151c0.279,0.291,0.654,0.439,1.125,0.439c0.442,0,1.192-0.176,2.253-0.529
				l1.28,6.36l-0.397,0.219c-0.264,0.147-0.412,0.227-0.442,0.241l-0.44,0.223c-0.266,0.133-0.435,0.212-0.509,0.241
				c-0.074,0.032-0.236,0.097-0.485,0.201c-0.25,0.101-0.449,0.169-0.595,0.198c-0.147,0.029-0.354,0.072-0.618,0.133
				c-0.266,0.058-0.509,0.101-0.73,0.133c-0.219,0.029-0.471,0.05-0.75,0.065c-0.28,0.014-0.566,0.022-0.861,0.022
				c-2.443,0-4.408-0.759-5.895-2.272c-1.487-1.517-2.231-3.527-2.231-6.03V22.912h8.875V48.479z"/>
			<path d="M405.324,36.337c1.898,1.647,2.848,3.987,2.848,7.022v13.555h-8.611v-1.456c-1.706,1.413-3.856,2.118-6.447,2.118
				c-2.443,0-4.401-0.669-5.873-2.01c-1.471-1.338-2.208-3.11-2.208-5.318c0-2.269,0.868-4.041,2.605-5.321
				c1.738-1.284,4.196-1.924,7.374-1.924h4.548v-0.618c0-0.647-0.205-1.169-0.618-1.568c-0.412-0.396-0.926-0.593-1.544-0.593
				c-1.384,0-2.193,0.705-2.429,2.118l-8.345-1.765c0.588-2.15,1.81-3.804,3.664-4.969c1.855-1.161,4.21-1.744,7.065-1.744
				C400.769,33.864,403.426,34.687,405.324,36.337z M398.7,50.579c0.575-0.485,0.861-1.187,0.861-2.1v-0.838h-2.517
				c-0.764,0-1.375,0.169-1.832,0.507c-0.457,0.338-0.685,0.802-0.685,1.391c0,0.529,0.192,0.956,0.575,1.28
				c0.381,0.324,0.883,0.485,1.501,0.485C397.427,51.305,398.126,51.064,398.7,50.579z"/>
			<path d="M433.003,36.316c1.501,1.632,2.251,3.862,2.251,6.688v13.911h-8.875V44.905c0-0.942-0.264-1.701-0.795-2.276
				c-0.53-0.575-1.206-0.859-2.031-0.859c-1.001,0-1.789,0.352-2.362,1.057c-0.573,0.708-0.861,1.708-0.861,3.002v11.085h-8.876
				V34.525h8.876v2.341c1.825-1.999,4.034-3.002,6.623-3.002C429.484,33.864,431.5,34.68,433.003,36.316z"/>
			<path d="M459.421,37.222c2.443,2.208,3.664,5.048,3.664,8.521s-1.221,6.314-3.664,8.521c-2.443,2.208-5.417,3.311-8.92,3.311
				c-3.533,0-6.52-1.104-8.964-3.311c-2.443-2.208-3.666-5.048-3.666-8.521s1.222-6.314,3.666-8.521
				c2.443-2.211,5.431-3.315,8.964-3.315C454.004,33.907,456.978,35.01,459.421,37.222z M453.393,48.9
				c0.78-0.87,1.17-1.92,1.17-3.157c0-1.266-0.39-2.333-1.17-3.204c-0.78-0.867-1.744-1.302-2.893-1.302
				c-1.178,0-2.156,0.435-2.936,1.302c-0.78,0.87-1.17,1.938-1.17,3.204c0,1.237,0.39,2.287,1.17,3.157
				c0.78,0.867,1.758,1.302,2.936,1.302C451.649,50.201,452.613,49.766,453.393,48.9z"/>
		</g>
	</g>
	<path d="M293.294,35.069h-14.34c-6.095,0-11.036,4.941-11.036,11.036s4.941,11.036,11.036,11.036h14.34
		c6.095,0,11.036-4.941,11.036-11.036S299.39,35.069,293.294,35.069z M293.259,56.106c-5.523,0-10.001-4.478-10.001-10.001
		s4.478-10.001,10.001-10.001s10.001,4.478,10.001,10.001S298.782,56.106,293.259,56.106z"/>
</g>
</svg>
